<?xml version="1.0" standalone="no"?>
<!DOCTYPE svg PUBLIC "-//W3C//DTD SVG 1.1//EN" "http://www.w3.org/Graphics/SVG/1.1/DTD/svg11.dtd">
	<svg t="1637207630548" class="icon" viewBox="0 0 1024 1024" version="1.1" xmlns="http://www.w3.org/2000/svg" p-id="1453" xmlns:xlink="http://www.w3.org/1999/xlink" width="200" height="200">
		<defs>
			<style type="text/css"/>
		</defs>
		<path d="M358.82 228.199s-83.159 409.559-176.761 517.14c0 0 285.42 49.92 582.121-76.5 0 0-220.32-435.721-299.28-636.72l17.641 445.86-17.641 211.020s-9.84 16.26-35.34-104.041c-27.481-129.239-70.74-356.759-70.74-356.759zM149.060 782.48s52.441 98.58 68.761 107.7c16.38 9.12 463.2-7.020 501.6-17.94 38.521-10.921 164.64-87.721 154.921-179.401 0.060 0-283.14 149.34-725.28 89.641zM254.54 934.82h465.3c4.681 0 8.521 3.84 8.521 8.58 0 4.8-3.78 8.7-8.521 8.7h-465.3c-4.713-0.034-8.521-3.862-8.521-8.58 0-0.042 0-0.084 0.001-0.127 0-4.733 3.78-8.573 8.519-8.573zM376.281 974.839h243.66c4.726 0.017 8.55 3.852 8.55 8.58 0 4.739-3.842 8.58-8.58 8.58-0.010 0-0.021 0-0.032 0h-243.598c-4.74 0-8.58-3.78-8.58-8.58s3.84-8.58 8.58-8.58z" fill="#d81e06" p-id="1454"/>
	</svg>